<svg width="382" height="47" viewBox="0 0 382 47" fill="none" xmlns="http://www.w3.org/2000/svg">
<g clip-path="url(#clip0_898_154)">
<path fill-rule="evenodd" clip-rule="evenodd" d="M69.8735 9.18085V45.9929H75.171V9.18085H88.0262V6.80308H56.9477V9.18085H69.8735ZM116.827 2.23846V-0.0178223H93.3236V2.23846H116.827ZM93.5355 45.9929H117.127V43.4936H98.78V25.912H115.449V23.5863H98.78V9.18085H116.827V6.80308H93.5355V45.9929ZM124.561 45.9929H148.276V43.4936H129.876V25.912H146.598V23.5863H129.876V9.18085H148.064V6.80308H124.561V45.9929ZM0 45.9929H23.662V43.4936H5.26214V25.912H21.9315V23.5863H5.26214V9.18085H23.4324V6.80308H0V45.9929ZM319.737 45.9929H343.399V43.4936H325.052V25.912H341.722V23.5863H325.052V9.12878H343.117V6.80308H319.737V45.9929ZM171.814 45.9929H195.247V43.4416H177.006V6.80308H171.814V45.9929ZM28.6769 44.2573C32.2467 46.0651 36.2097 46.9943 40.2254 46.9648C48.5247 46.9648 56.1178 42.2614 56.1178 34.3297C56.1178 20.9482 33.374 25.4781 33.374 15.1513C33.374 11.3677 37.0116 8.018 42.5033 8.018C46.4504 8.06053 50.2521 9.48867 53.2218 12.0446V8.50397C49.8234 6.8238 46.0778 5.93311 42.2737 5.90057C35.2105 5.90057 28.7652 9.97923 28.7652 16.5571C28.7652 30.5634 51.3324 25.5128 51.3324 35.9958C51.3324 40.3175 47.2357 44.6738 40.3137 44.6738C36.1657 44.4731 32.1609 43.1189 28.7652 40.7687V44.3441L28.6769 44.2573ZM197.154 45.9929L214 6.40389H218.149L224.718 21.6598L235.313 45.9582H229.292L223.111 31.0147H206.954L200.774 45.9929H197.154ZM222.193 28.6369C220.427 24.4368 217.62 17.8588 215.024 11.2809C212.322 18.0845 208.808 26.7104 207.961 28.6369H222.193ZM238.086 32.9412C238.086 41.7407 243.383 46.826 253.978 46.826C265.403 46.826 269.87 40.3001 269.87 33.271V6.80308H266.904V33.271C266.904 40.4737 261.995 44.6044 254.667 44.6044C248.204 44.6044 243.295 41.3241 243.295 33.9478V6.80308H238.121V32.9933L238.086 32.9412ZM350.886 6.75101H365.26C372.818 6.57745 379.104 9.52797 379.104 16.7828C379.104 24.0376 370.734 26.2591 368.951 26.5889L381.929 45.9408H376.049L363.812 27.2137H356.148V45.9929H350.851V6.80308L350.886 6.75101ZM362.417 25.0095C369.004 25.1136 374.018 22.6317 374.018 16.7828C374.018 11.576 370.84 8.85108 364.96 8.90315H356.131V25.0095H362.417ZM277.923 45.9929V6.80308H293.215C305.893 6.57745 313.292 13.6587 313.292 25.8947C313.292 40.4737 303.138 46.1317 291.184 45.9755L277.923 45.9929ZM283.22 43.6672H290.283C301.125 43.8234 307.941 39.1893 307.941 26.5368C307.941 14.8563 302.291 8.90315 292.526 9.07671H283.238V43.6845L283.22 43.6672Z" fill="#040A2B"/>
</g>
<defs>
<clipPath id="clip0_898_154">
<rect width="382" height="47" fill="white"/>
</clipPath>
</defs>
</svg>
