<?xml version="1.0" encoding="UTF-8"?>
<svg id="Layer_2" data-name="Layer 2" xmlns="http://www.w3.org/2000/svg" viewBox="0 0 110.7 125.38">
  <defs>
    <style>
      .cls-1 {
        fill: none;
      }

      .cls-1, .cls-2 {
        stroke-width: 0px;
      }

      .cls-2 {
        fill: #231f20;
      }
    </style>
  </defs>
  <g id="Layer_1-2" data-name="Layer 1">
    <g>
      <polygon class="cls-1" points="69.99 39.16 70.14 39.16 69.99 38.75 69.99 39.16"/>
      <path class="cls-2" d="M72.43,22.94c0-3.45-.11-6.94.42-10.37.44-2.84,1.31-5.89,4.07-7.25,2.19-1.08,4.94-1.15,7.29-.63,4.19.93,7.93,5.06,10.07,8.59,2.23,3.68,3.28,7.06,1.97,11.9l14.45-.23c-.87-3.03-2.12-6.02-3.81-8.81C100.67,5.91,88.56-1.53,75.96.27c-13.35,1.9-17.48,16.33-17.69,27.73-.07,3.71-.1,7.44-.13,11.16v.13l-14.14-.13v3.93l14.14.13v70.33L15.76,2.92H0l47.72,122.46h24.66V43.22h38.31v-3.93h-38.3c.01-7.98.05-8.34.04-16.35ZM69.99,39.16v-.41l.16.41h-.16Z"/>
    </g>
  </g>
</svg>